# xmcd
#
# Track frame offsets:
#	150
#	12420
#	23457
#	38707
#	51157
#	67065
#	79600
#	89875
#	100260
#	114125
#	127850
#	141180
#	151030
#	162612
# Disc length: 2310 seconds
# Revision: 1
# Processed by: cddbd v1.5.1PL2 Copyright (c) Steve Scherf et al.
#
# Submitted via: libkcddb 0.21
#
DISCID=ac09040e
DTITLE=Vikingarna - Kramgoa Låtar 1997
DYEAR=1997
DGENRE=Dansband
TTITLE0=Små nära ting
TTITLE1=Samma tid, samma plats
TTITLE2=Du gav mej ljusa minnen
TTITLE3=Good Luck Charm
TTITLE4=Var det nånting som jag sa
TTITLE5=Min barndomstid
TTITLE6=Varför
TTITLE7=I en roddbåt till Kina
TTITLE8=Sån´t rår inte åren på
TTITLE9=Jag vill ha dej mer
TTITLE10=En enkel sång om kärleken
TTITLE11=Ingenting
TTITLE12=Inga stora bevingade ord
TTITLE13=Adios Amigo
EXTD=
EXTT0=
EXTT1=
EXTT2=
EXTT3=
EXTT4=
EXTT5=
EXTT6=
EXTT7=
EXTT8=
EXTT9=
EXTT10=
EXTT11=
EXTT12=
EXTT13=
PLAYORDER=
